<svg version="1.1" xmlns="http://www.w3.org/2000/svg" xmlns:xlink="http://www.w3.org/1999/xlink" width="766.75976" height="494.5015" viewBox="0,0,766.75976,494.5015"><g transform="translate(120.19069,66.5)"><g data-paper-data="{&quot;isPaintingLayer&quot;:true}" fill-rule="nonzero" stroke="none" stroke-width="0" stroke-linecap="butt" stroke-linejoin="miter" stroke-miterlimit="10" stroke-dasharray="" stroke-dashoffset="0" style="mix-blend-mode: normal"><path d="M638.57508,-66.5v377h-639.13814v-377z" data-paper-data="{&quot;index&quot;:null}" fill="#14e4ff"/><path d="M640.05856,128.5015c0,50.8102 -143.2951,92 -320.05856,92c-176.76346,0 -320.05856,-41.1898 -320.05856,-92c0,-50.8102 143.2951,-92 320.05856,-92c176.76346,0 320.05856,41.1898 320.05856,92z" fill="#adff7b"/><path d="M-120.19069,428.0015v-290h766.75976v290z" fill="#adff7b"/><path d="M210.75,5c0,9.1127 -25.96748,16.5 -58,16.5c-32.03252,0 -58,-7.3873 -58,-16.5c0,-9.1127 25.96748,-16.5 58,-16.5c32.03252,0 58,7.3873 58,16.5z" fill="#ffffff"/><path d="M553.75,-32c0,12.42641 -31.34007,22.5 -70,22.5c-38.65993,0 -70,-10.07359 -70,-22.5c0,-12.42641 31.34007,-22.5 70,-22.5c38.65993,0 70,10.07359 70,22.5z" fill="#ffffff"/></g></g></svg>