<svg version="1.1" xmlns="http://www.w3.org/2000/svg" xmlns:xlink="http://www.w3.org/1999/xlink" width="677.37238" height="520.12002" viewBox="0,0,677.37238,520.12002"><g transform="translate(17.28229,80.06)"><g data-paper-data="{&quot;isPaintingLayer&quot;:true}" fill-rule="nonzero" stroke="none" stroke-width="0" stroke-linecap="butt" stroke-linejoin="miter" stroke-miterlimit="10" stroke-dasharray="" stroke-dashoffset="0" style="mix-blend-mode: normal"><path d="M-8.07808,381.47123v-402.94245h668.16817v402.94245z" fill="#00a9ff"/><path d="M320.19518,1.70727c0,10.94618 -25.88143,19.81981 -57.8078,19.81981c-31.92637,0 -57.80781,-8.87363 -57.80781,-19.81981c0,-10.94618 25.88144,-19.81981 57.80781,-19.81981c31.92637,0 57.8078,8.87363 57.8078,19.81982z" fill="#ffffff"/><path d="M587.20719,-30.51045c0,27.36546 -64.70359,49.54955 -144.51952,49.54955c-79.81593,0 -144.51953,-22.18409 -144.51953,-49.54955c0,-27.36546 64.7036,-49.54955 144.51953,-49.54955c79.81593,0 144.51952,22.18409 144.51952,49.54955z" fill="#ffffff"/><path d="" fill="#4d3184"/><path d="M77.04533,226.36179v-57.96621h69.69746v57.96621z" fill="#a70019"/><path d="M63.93392,171.09384v-28.29303h96.61035v28.29303z" fill="#66000f"/><path d="M552.57807,160.01522v64.72797h-104.71138c-0.32451,-4.5394 -3.41178,-6.21366 -5.64495,-6.83116c-2.30338,-1.97852 -3.72666,-4.64655 -5.72773,-7.02533c-3.51471,-4.17815 -7.85456,-7.90956 -11.71684,-11.77184c-2.55947,-2.52329 -5.23396,-5.39054 -7.46182,-8.20592c-1.19194,-1.50627 -1.9923,-3.29813 -3.19645,-4.79466c-3.73152,-4.63759 -8.20176,-8.28644 -11.98666,-12.78577c-1.94819,-2.31592 -3.76934,-4.11232 -5.59377,-6.39288c-0.91681,-1.14601 -2.56611,-1.75435 -2.59438,-3.05451c0,0 -0.74272,-2.22816 -2.63081,-3.86588z" fill="#a396be"/><path d="M414.6247,159.95408v-20.37732h123.86215v20.37732z" fill="#4000bf"/><path d="M520.86936,139.70358v-24.10468h9.87701v24.10468z" fill="#000000"/><path d="M419.25725,155.26234l-24.3721,0.19343l-0.07611,-9.58903l24.3721,-0.19342z" fill="#670000"/><path d="M437.39935,188.52229c0,3.64103 -3.13053,6.59266 -6.99222,6.59266c-3.86169,0 -6.99222,-2.95163 -6.99222,-6.59266c0,-3.64103 3.13052,-6.59266 6.99222,-6.59266c3.86169,0 6.99222,2.95163 6.99222,6.59266z" fill="#000000"/><path d="M460.83993,188.65548c0,3.64103 -3.13052,6.59266 -6.99222,6.59266c-3.86169,0 -6.99221,-2.95163 -6.99221,-6.59266c0,-3.64103 3.13052,-6.59266 6.99221,-6.59266c3.86169,0 6.99222,2.95163 6.99222,6.59266z" fill="#000000"/><path d="M486.54465,188.92185c0,3.64103 -3.13052,6.59266 -6.99222,6.59266c-3.86169,0 -6.99222,-2.95163 -6.99222,-6.59266c0,-3.64103 3.13052,-6.59266 6.99222,-6.59266c3.86169,0 6.99222,2.95163 6.99222,6.59266z" fill="#000000"/><path d="M510.51797,188.65548c0,3.64103 -3.13052,6.59266 -6.99222,6.59266c-3.86169,0 -6.99222,-2.95163 -6.99222,-6.59266c0,-3.64103 3.13052,-6.59266 6.99222,-6.59266c3.86169,0 6.99222,2.95163 6.99222,6.59266z" fill="#000000"/><path d="M535.68995,188.52229c0,3.64103 -3.13052,6.59266 -6.99222,6.59266c-3.86169,0 -6.99222,-2.95163 -6.99222,-6.59266c0,-3.64103 3.13052,-6.59266 6.99222,-6.59266c3.86169,0 6.99222,2.95163 6.99222,6.59266z" fill="#000000"/><path d="M431.72519,139.6188v-23.1742h40.75464v23.1742z" fill="#000000"/><path d="M442.37999,116.4446v-18.11317h18.11318v18.11317z" fill="#ff0000"/><path d="M292.25554,225.35579v-57.96621h69.69746v57.96621z" fill="#a70019"/><path d="M279.14413,170.08784v-28.29303h96.61035v28.29303z" fill="#66000f"/><path d="M-17.28229,440.05999v-219.2192h674.56456v219.21923z" fill="#616161"/></g></g></svg>