<svg version="1.1" xmlns="http://www.w3.org/2000/svg" xmlns:xlink="http://www.w3.org/1999/xlink" width="698.4744" height="431.42943" viewBox="0,0,698.4744,431.42943"><g transform="translate(1.86027,37.21622)"><g data-paper-data="{&quot;isPaintingLayer&quot;:true}" fill-rule="nonzero" stroke-linejoin="miter" stroke-miterlimit="10" stroke-dasharray="" stroke-dashoffset="0" style="mix-blend-mode: normal"><path d="M-0.86027,393.21321v-429.42943h657.94736v429.42943z" fill="#856e8e" stroke="#000000" stroke-width="2" stroke-linecap="butt"/><path d="M-0.84975,393.00376v-134h696.46388v134z" fill="#000000" stroke="#000000" stroke-width="2" stroke-linecap="butt"/><path d="M356.50001,86.03529l-6.5,-53l-34.5,32.96471l1,-100" fill="none" stroke="#000000" stroke-width="2" stroke-linecap="round"/><path d="M275.25001,84.28529l6.5,-49.5l34.25,32.25" fill="none" stroke="#000000" stroke-width="2" stroke-linecap="round"/><path d="M315.87501,64.03529c0.48325,0 0.875,3.52576 0.875,7.875c0,4.34924 -0.39175,7.875 -0.875,7.875c-0.48325,0 -0.875,-3.52576 -0.875,-7.875c0,-4.34924 0.39175,-7.875 0.875,-7.875z" fill="none" stroke="#000000" stroke-width="2" stroke-linecap="butt"/><path d="M275.09096,87.04489l-9.11156,-8.41067l8.54633,-9.25853l9.11156,8.41068z" fill="#f4ff28" stroke="#000000" stroke-width="2" stroke-linecap="butt"/><path d="M315.75762,86.04489l-9.11156,-8.41067l8.54633,-9.25853l9.11156,8.41068z" fill="#f4ff28" stroke="#000000" stroke-width="2" stroke-linecap="butt"/><path d="M355.42429,89.37822l-9.11156,-8.41067l8.54633,-9.25853l9.11156,8.41067z" fill="#f4ff28" stroke="#000000" stroke-width="2" stroke-linecap="butt"/><path d="" fill="#9966ff" stroke="none" stroke-width="0.5" stroke-linecap="butt"/><path d="M239.75001,258v-16.91897h156.83333v16.91897z" fill="#faffa2" stroke="#000000" stroke-width="2" stroke-linecap="butt"/><path d="M239.08334,239.66667v-15.91897h156.83333v15.91897z" fill="#faffa2" stroke="#000000" stroke-width="2" stroke-linecap="butt"/><path d="M239.08334,222.66667v-15.91897h156.83333v15.91897z" fill="#faffa2" stroke="#000000" stroke-width="2" stroke-linecap="butt"/><path d="M239.08334,205.16667v-15.91897h156.83333v15.91897z" fill="#faffa2" stroke="#000000" stroke-width="2" stroke-linecap="butt"/><path d="M221.49249,258.92493v-152.38513h17.01202v152.38514z" fill="#6b7100" stroke="#000000" stroke-width="2" stroke-linecap="butt"/><path d="M400.82733,233.21472c0,-1.38071 1.11929,-2.5 2.5,-2.5c1.38071,0 2.5,1.11929 2.5,2.5c0,1.38071 -1.11929,2.5 -2.5,2.5c-1.38071,0 -2.5,-1.11929 -2.5,-2.5z" fill="#6b7100" stroke="none" stroke-width="0.5" stroke-linecap="butt"/><path d="M239.41668,187.83333v-15.91897h156.83333v15.91897z" fill="#faffa2" stroke="#000000" stroke-width="2" stroke-linecap="butt"/><path d="M239.08334,170.66667v-15.91897h156.83333v15.91897z" fill="#faffa2" stroke="#000000" stroke-width="2" stroke-linecap="butt"/><path d="M413.50451,106.20646v152.38514h-17.01201v-152.38514z" data-paper-data="{&quot;index&quot;:null}" fill="#6b7100" stroke="#000000" stroke-width="2" stroke-linecap="butt"/><path d="M239.41668,152.83333v-37.58563h156.83333v37.58563z" fill="#faffa2" stroke="#000000" stroke-width="2" stroke-linecap="butt"/><path d="M562.71735,49.72723l7.98768,22.63177l-158.42237,55.91378l-7.98768,-22.63177z" data-paper-data="{&quot;index&quot;:null}" fill="#6b7100" stroke="#000000" stroke-width="2" stroke-linecap="butt"/><path d="M231.70504,105.50541l-7.6826,21.76737l-152.37153,-53.77818l7.6826,-21.76737z" data-paper-data="{&quot;index&quot;:null}" fill="#6b7100" stroke="#000000" stroke-width="2" stroke-linecap="butt"/></g></g></svg>