<svg version="1.1" xmlns="http://www.w3.org/2000/svg" xmlns:xlink="http://www.w3.org/1999/xlink" width="683.66066" height="387" viewBox="0,0,683.66066,387"><g transform="translate(24.08258,13.5)"><g data-paper-data="{&quot;isPaintingLayer&quot;:true}" fill-rule="nonzero" stroke="none" stroke-width="0" stroke-linecap="butt" stroke-linejoin="miter" stroke-miterlimit="10" stroke-dasharray="" stroke-dashoffset="0" style="mix-blend-mode: normal"><path d="M636.04865,-13.5v377h-654.90247v-377z" data-paper-data="{&quot;index&quot;:null}" fill="#14e4ff"/><path d="M659.57808,293.5c0,34.79394 -153.04265,63 -341.83033,63c-188.78768,0 -341.83033,-28.20606 -341.83033,-63c0,-34.79394 153.04265,-63 341.83033,-63c188.78768,0 341.83033,28.20606 341.83033,63z" fill="#adff7b"/><path d="M-8.3963,373.5v-93h662.74561v93z" fill="#adff7b"/><path d="M174.93718,58c0,9.1127 -33.94444,16.5 -75.81705,16.5c-41.87261,0 -75.81705,-7.3873 -75.81705,-16.5c0,-9.1127 33.94444,-16.5 75.81705,-16.5c41.87261,0 75.81705,7.3873 75.81705,16.5z" fill="#ffffff"/><path d="M623.30354,21c0,12.42641 -40.96744,22.5 -91.50334,22.5c-50.5359,0 -91.50334,-10.07359 -91.50334,-22.5c0,-12.42641 40.96744,-22.5 91.50334,-22.5c50.5359,0 91.50334,10.07359 91.50334,22.5z" fill="#ffffff"/><path d="M440.29686,117.5c0,8.28427 -25.75096,15 -57.51638,15c-31.76542,0 -57.51638,-6.71573 -57.51638,-15c0,-8.28427 25.75096,-15 57.51638,-15c31.76542,0 57.51638,6.71573 57.51638,15z" fill="#ffffff"/></g></g></svg>