<svg version="1.1" xmlns="http://www.w3.org/2000/svg" xmlns:xlink="http://www.w3.org/1999/xlink" width="824.59038" height="441.747" viewBox="0,0,824.59038,441.747"><g transform="translate(145.63034,40.8735)"><g data-paper-data="{&quot;isPaintingLayer&quot;:true}" fill-rule="nonzero" stroke-linecap="butt" stroke-linejoin="miter" stroke-miterlimit="10" stroke-dasharray="" stroke-dashoffset="0" style="mix-blend-mode: normal"><path d="M-145.63034,400.8735v-359.3931h824.59038v359.3931z" fill="#f19494" stroke="none" stroke-width="0"/><path d="M-76.91644,88.73056v-90.21104h123.57128l151.86279,90.21104z" fill="#f1c894" stroke="none" stroke-width="0"/><path d="M447.37557,84.76693l108.39689,-85.73842l93.57641,1.24167l-5.24095,82.63238z" data-paper-data="{&quot;index&quot;:null}" fill="#f1c894" stroke="none" stroke-width="0"/><path d="M247.72895,75.88074l-66.2603,-71.59325l264.79697,1.96146l-55.86087,69.6318z" fill="#f1c894" stroke="none" stroke-width="0"/><g><path d="M315.36342,-35.40458v-5.21892h4.26335v5.21892z" fill="#432f00" stroke="#737373" stroke-width="0.5"/><path d="M314.46641,-30.10409v-5.38202h6.27903v5.38202z" fill="#0000ab" stroke="#737373" stroke-width="0.5"/><path d="M316.17208,-29.69637v-5.62666h2.56868v5.62666z" fill="#757575" stroke="none" stroke-width="0"/><path d="M339.68445,49.52269v-27.94002c0,0 1.08635,-9.75492 2.82408,-10.88341c2.04017,-1.32487 5.15729,0.62112 8.03681,0.31293c5.1648,-0.55273 10.33122,-2.66112 12.59237,-3.41772c7.96137,-2.66399 19.73581,-0.46352 19.73581,-0.46352c0,0 -0.63831,2.27479 -0.86469,6.7816c-0.23717,4.72171 -0.05593,11.76796 0.26576,15.56571c0.48537,5.72927 4.05405,18.43872 4.05405,18.43872z" data-paper-data="{&quot;index&quot;:null}" fill="#a70077" stroke="#737373" stroke-width="0.5"/><path d="M249.98404,48.81396c0,0 3.5687,-12.70945 4.05406,-18.43872c0.32172,-3.79776 0.50296,-10.84399 0.26577,-15.56571c-0.22638,-4.50678 -0.8647,-6.7816 -0.8647,-6.7816c0,0 11.77447,-2.20047 19.73584,0.46354c2.26115,0.75662 7.42756,2.86499 12.59235,3.41772c2.87953,0.30815 5.99666,-1.63783 8.03683,-0.31293c1.73773,1.12847 2.82408,10.88341 2.82408,10.88341v27.94005z" fill="#a70077" stroke="#737373" stroke-width="0.5"/><path d="M342.89871,48.4762c0,4.29348 -49.03622,3.99447 -49.03622,-0.29899c0,-2.28399 -4.47052,-33.64382 1.54452,-51.303c2.61673,-7.68224 5.38732,-13.30705 10.19537,-15.82158c0.59433,-0.31083 6.71098,-7.42521 12.73929,-7.47062c6.01756,-0.04532 11.94713,6.97785 12.20807,7.19018c3.42746,2.78887 8.34911,10.46829 9.75358,14.8714c4.70907,14.76324 2.5954,50.93667 2.5954,52.83262z" fill="#a70077" stroke="#737373" stroke-width="0.5"/><path d="M337.81571,33.52614c0,3.98626 1.08538,15.10097 -1.76963,18.29242c-0.88949,0.99431 -33.59187,1.31679 -34.54283,0.04644c-2.29193,-3.06172 -0.7637,-15.03907 -0.7637,-18.63786c0,-4.39028 13.72881,-14.95008 18.23908,-14.95008c5.16518,0 18.8371,11.56409 18.8371,15.24907z" fill="#000000" stroke="none" stroke-width="0"/><path d="M371.86447,18.27854c0,1.66931 -5.89196,1.09513 -7.97256,1.09513c-2.0806,0 -8.32301,0.7494 -8.32301,-0.91991c0,-1.66931 6.24241,-5.12521 8.32301,-5.12521c2.0806,0 7.97256,3.28066 7.97256,4.95z" fill="#0000ab" stroke="none" stroke-width="0"/><g stroke="none" stroke-width="0"><path d="M354.94848,48.1772v-25.11612h17.34209v25.11612z" fill="#757575"/><path d="M358.16649,48.04264v-24.89187h1.90615v24.89187z" fill="#000000"/><path d="M362.87575,48.04264v-24.89187h1.90613v24.89187z" fill="#000000"/><path d="M367.3608,48.04264v-24.89187h1.90612v24.89187z" fill="#000000"/></g><path d="M348.76665,23.06105v-2.46676h30.04964v2.46676z" fill="#000000" stroke="none" stroke-width="0"/><path d="M351.2334,20.61297v-2.05563h25.04138v2.05563z" fill="#ffffff" stroke="none" stroke-width="0"/><path d="M281.71555,18.87654c0,1.66931 -5.89196,1.09513 -7.97257,1.09513c-2.0806,0 -8.32301,0.74941 -8.32301,-0.91991c0,-1.66931 6.24241,-5.12522 8.32301,-5.12522c2.0806,0 7.97257,3.28066 7.97257,4.94999z" fill="#0000ab" stroke="none" stroke-width="0"/><path d="M264.79955,48.77519v-25.11611h17.34207v25.11612z" fill="#757575" stroke="none" stroke-width="0"/><path d="M268.01756,48.64064v-24.89186h1.90615v24.89187z" fill="#000000" stroke="none" stroke-width="0"/><path d="M272.72682,48.64064v-24.89186h1.90613v24.89187z" fill="#000000" stroke="none" stroke-width="0"/><path d="M277.21185,48.64064v-24.89186h1.90613v24.89187z" fill="#000000" stroke="none" stroke-width="0"/><path d="M345.79963,48.73193l4.61562,-15.6016l1.73924,0.51455l-4.61563,15.6016z" fill="#432f00" stroke="none" stroke-width="0"/><path d="M350.41525,49.24644l-4.61562,-15.60159l1.73922,-0.51455l4.61563,15.60161z" data-paper-data="{&quot;index&quot;:null}" fill="#432f00" stroke="none" stroke-width="0"/><g stroke="#000da7" stroke-width="0"><path d="M351.50254,30.58205c0,2.63139 -0.83881,3.92913 -2.3888,3.92913c-1.55001,0 -2.70209,-1.08888 -2.70209,-3.72027c0,-0.24419 1.29594,-5.80885 2.70209,-5.80885c0.90557,0 2.3888,4.50595 2.3888,5.59997z" fill="#0000ab"/><path d="M350.81725,30.87727c0,1.87405 -0.59739,2.79829 -1.70129,2.79829c-1.10389,0 -1.9244,-0.7755 -1.9244,-2.64954c0,-0.17392 0.92296,-4.137 1.9244,-4.137c0.64493,0 1.70129,3.20911 1.70129,3.98826z" fill="#7b2ac8"/></g><path d="M353.06958,33.38392c0,0.77063 -1.82952,1.39534 -4.08636,1.39534c-2.25684,0 -4.08635,-0.62471 -4.08635,-1.39534c0,-0.77063 2.02886,0.09967 4.28568,0.09967c2.25684,0 3.88702,-0.8703 3.88702,-0.09967z" fill="#432f00" stroke="none" stroke-width="0"/><g stroke="#000da7" stroke-width="0"><path d="M289.90823,30.43254c0,2.63139 -0.83881,3.92912 -2.3888,3.92912c-1.54999,0 -2.70209,-1.08887 -2.70209,-3.72027c0,-0.24419 1.29594,-5.80885 2.70209,-5.80885c0.90556,0 2.3888,4.50595 2.3888,5.59998z" fill="#0000ab"/><path d="M289.22296,30.72777c0,1.87405 -0.59739,2.7983 -1.70128,2.7983c-1.10389,0 -1.92441,-0.77551 -1.92441,-2.64955c0,-0.17391 0.92297,-4.13702 1.92441,-4.13702c0.64493,0 1.70128,3.20912 1.70128,3.98827z" fill="#7b2ac8"/></g><path d="M284.20534,48.63226l4.61562,-15.6016l1.73922,0.51455l-4.61562,15.6016z" fill="#432f00" stroke="none" stroke-width="0"/><path d="M288.82098,49.14678l-4.61562,-15.6016l1.73922,-0.51455l4.61563,15.6016z" data-paper-data="{&quot;index&quot;:null}" fill="#432f00" stroke="none" stroke-width="0"/><path d="M291.47528,33.28425c0,0.77063 -1.82953,1.39534 -4.08637,1.39534c-2.25683,0 -4.08636,-0.62472 -4.08636,-1.39534c0,-0.77063 2.02886,0.09967 4.28569,0.09967c2.25683,0 3.88702,-0.8703 3.88702,-0.09967z" fill="#432f00" stroke="none" stroke-width="0"/><path d="M234.80972,57.24874v-4.45166h162.65678v4.45166z" fill="#757575" stroke="none" stroke-width="0"/><path d="M234.80972,54.34183v-2.22584h162.65678v2.22584z" fill="#000000" stroke="none" stroke-width="0"/><path d="M244.52728,52.43631v-3.91156h142.92269v3.91156z" fill="#757575" stroke="none" stroke-width="0"/><path d="M244.52728,49.88207v-1.95579h142.92269v1.95579z" fill="#000000" stroke="none" stroke-width="0"/><path d="M258.61769,23.65908v-2.46676h30.04966v2.46676z" fill="#000000" stroke="none" stroke-width="0"/><path d="M261.08447,21.21098v-2.05565h25.04136v2.05565z" fill="#ffffff" stroke="none" stroke-width="0"/><path d="M330.59222,-19.78482c0,2.3629 -10.3722,-2.19701 -13.18213,-2.19701c-2.80994,0 -12.71962,4.55991 -12.71962,2.19701c0,-1.29479 0.20089,-5.50936 3.98108,-7.80062c3.11847,-1.89018 7.46833,-2.95323 8.73855,-2.95323c1.33038,0 5.28094,0.49329 8.09823,2.72482c3.13324,2.4818 5.0839,6.78485 5.0839,8.02904z" fill="#7b2ac8" stroke="#737373" stroke-width="0.5"/><path d="M317.4101,-21.98182c-0.81848,0 -2.23936,0.38689 -3.84222,0.87689c-0.0349,-1.58351 0.99513,-8.71015 1.07446,-8.92752c1.23627,-0.33226 2.25396,-0.50621 2.76776,-0.50621c0.71153,0 1.60894,-0.01625 3.24521,0.4564c0.19629,1.20032 1.08673,7.31202 0.9655,9.05854c-1.77062,-0.52776 -3.34749,-0.95809 -4.2107,-0.95809z" fill="#6db5fe" stroke="#737373" stroke-width="0.5"/><path d="M316.59068,10.84821c0,0.02064 0.72328,2.23796 0.31434,2.98076c-0.21329,0.38741 -1.82013,0.28232 -2.4291,-0.11046c-0.73924,-0.47679 -0.51008,-1.30023 -0.94749,-1.19429c-2.16026,0.52322 -5.24459,0.39525 -7.56318,0.39525c-0.80184,0 -4.32861,8.56245 -6.05521,10.02925c-0.69138,0.58736 -1.70091,-3.28424 -1.31982,-6.47174c0.37373,-3.12598 2.13165,-5.56286 2.13165,-5.62878c0,-0.19815 3.55235,-0.3588 7.9344,-0.3588c4.38206,0 7.93442,0.16065 7.93442,0.3588z" fill="#6db5fe" stroke="#000000" stroke-width="0.5"/><path d="M316.23422,10.47543c0,0.39408 -13.33259,-0.32617 -13.61816,-0.32617c-0.35205,0 -2.54683,-3.29603 -2.90697,-4.11582c-0.43367,-0.98721 -0.37667,-2.41933 -0.33958,-2.87603c0.22024,-2.71287 3.01028,-4.28071 3.1726,-4.3811c0.2776,-0.17167 0.14881,2.37119 1.68117,4.67501c0.87414,1.31423 3.169,2.60568 4.17452,3.13269c1.29145,0.67686 3.00526,0.42062 4.48815,1.00638c1.50995,0.59647 3.34829,2.76382 3.34829,2.88503z" fill="#ff0000" stroke="#000000" stroke-width="0.5"/><path d="M327.96043,10.26517c4.38205,0 7.93439,0.16065 7.93439,0.3588c0,0.06592 1.75792,2.50277 2.13166,5.62878c0.38108,3.1875 -0.62844,7.05909 -1.31982,6.47174c-1.72661,-1.46681 -5.25338,-10.02924 -6.05521,-10.02924c-2.3186,0 -5.40295,0.12797 -7.5632,-0.39525c-0.43741,-0.10593 -0.20825,0.71752 -0.94748,1.19429c-0.60897,0.39277 -2.21582,0.49785 -2.4291,0.11044c-0.40893,-0.74281 0.31434,-2.96012 0.31434,-2.98075c0,-0.19815 3.55238,-0.3588 7.93442,-0.3588z" data-paper-data="{&quot;index&quot;:null}" fill="#ffffff" stroke="#000000" stroke-width="0.5"/><path d="M320.38249,10.2512c0,-0.1212 1.83834,-2.28857 3.34829,-2.88504c1.48288,-0.58576 3.19669,-0.3295 4.48815,-1.00637c1.00552,-0.52701 3.30039,-1.81846 4.17452,-3.1327c1.53235,-2.30381 1.40355,-4.84667 1.68117,-4.675c0.16233,0.10039 2.95236,1.6682 3.1726,4.38109c0.03708,0.4567 0.0941,1.88879 -0.33957,2.87602c-0.36014,0.81979 -2.55492,4.11582 -2.90697,4.11582c-0.28557,0 -13.61817,0.72025 -13.61817,0.32617z" data-paper-data="{&quot;index&quot;:null}" fill="#432f00" stroke="#000000" stroke-width="0.5"/><path d="M330.22321,-4.7888c0,6.7444 -5.38816,12.2118 -12.03481,12.2118c-6.64665,0 -12.03482,-5.46739 -12.03482,-12.21178c0,-6.74439 5.38816,-12.21179 12.03482,-12.21179c6.64665,0 12.03481,5.4674 12.03481,12.21179z" fill="#2b5786" stroke="#000000" stroke-width="0.5"/><path d="M330.19824,-4.78272c0,0.29975 -0.01064,0.59697 -0.03156,0.8913c-0.16535,-0.07973 -0.76019,-0.08856 -0.95695,-0.16555c-1.26168,-0.4937 -1.06972,-4.01913 -2.34044,-3.92843c-0.05811,0.00415 -3.02947,-0.24405 -3.25375,-0.24075c-1.9754,-1.65944 -4.21042,-4.1555 -4.60791,-7.60378c-0.11784,-1.02215 1.5538,-0.81264 1.562,-0.92046c5.49364,1.13119 9.62859,6.05943 9.62859,11.96766z" fill="#ffff6f" stroke="#000000" stroke-width="0.5"/><path d="M318.16341,7.30092c-6.27453,0 -11.42756,-4.87235 -11.98488,-11.09177c1.024,0.80949 2.01969,1.48966 2.34582,1.63967c2.57402,1.18388 5.25188,2.29243 10.03244,3.21345c0.71332,0.13743 2.87739,-0.30815 2.74475,0.2616c-0.57775,2.48209 -1.35153,5.97705 -3.13815,5.97705z" fill="#ffff6f" stroke="#000000" stroke-width="0.5"/><path d="M320.54303,-4.7888c0,1.39332 -1.0542,2.52282 -2.35465,2.52282c-1.30044,0 -2.35465,-1.1295 -2.35465,-2.52282c0,-1.39332 1.0542,-2.52282 2.35465,-2.52282c1.30044,0 2.35465,1.1295 2.35465,2.52282z" fill="#000000" stroke="#000000" stroke-width="0"/><path d="M254.84407,26.09387c0,8.55064 -3.69479,21.35763 -4.92257,21.35763c-1.17973,0 1.94808,-39.22183 3.17586,-39.22183c1.22779,0 1.74672,9.31356 1.74672,17.86419z" fill="#81005c" stroke="#737373" stroke-width="0.5"/><path d="M383.36382,7.27692c1.22778,0 4.51438,40.01581 3.33465,40.01581c-1.22779,0 -5.08138,-13.60095 -5.08138,-22.1516c0,-8.55063 0.51894,-17.8642 1.74672,-17.8642z" data-paper-data="{&quot;index&quot;:null}" fill="#81005c" stroke="#737373" stroke-width="0.5"/></g><g><path d="M367.10096,131.82034c0,2.34711 -21.21775,4.41328 -46.58465,4.41328c-25.3669,0 -45.93083,-1.90272 -45.93083,-4.24982c0,-2.34711 20.56394,-4.24983 45.93083,-4.24983c20.77588,0 40.02039,1.11286 45.77328,2.86432c1.27126,0.38704 0.81137,0.79727 0.81137,1.22206z" fill="#6db5fe" stroke="none" stroke-width="0"/><path d="M351.57725,105.64061c0,0.37451 -2.51603,0.89814 -3.54247,1.23442c-4.04565,1.32542 -13.78733,2.11641 -27.43223,2.11641c-17.10685,0 -30.97472,-1.50021 -30.97472,-3.35083c0,-1.85062 13.86785,-3.35081 30.97472,-3.35081c17.10687,0 30.97471,1.50021 30.97471,3.35081z" fill="#6db5fe" stroke="none" stroke-width="0"/><path d="M322.59655,92.83634c0,3.31757 0.31127,8.94915 -2.32924,8.94915c-2.6405,0 -1.83886,-8.57378 -1.83886,-11.89134c0,-0.80222 -4.52282,-5.53204 -10.66067,-6.38789c-5.46592,-0.76216 -8.34899,3.93238 -9.91183,1.591c-1.23299,-1.84721 2.89467,-8.17198 11.01636,-8.21667c5.85951,-0.03223 12.09864,4.55477 12.37573,4.55477c0.7474,0 6.19427,-5.69464 12.63838,-5.76167c2.44986,-0.02549 8.34012,2.43638 10.63749,5.21606c2.4267,2.93617 1.18519,6.19857 0.80578,6.16192c-2.80306,-0.2707 -8.42278,-7.17443 -12.62603,-5.65205c-2.23073,0.80796 -10.10711,11.18515 -10.10711,11.43672z" fill="#6db5fe" stroke="none" stroke-width="0"/><path d="M410.00787,195.79224c0,12.62061 -1.53819,31.87664 -18.24382,40.06449c-7.29311,3.57453 -130.51933,4.52369 -138.95461,0.52495c-17.34304,-8.22147 -23.2558,-27.6968 -23.2558,-40.58944c0,-24.91553 40.39605,-45.11356 90.22712,-45.11356c49.83106,0 90.22711,20.19803 90.22711,45.11356z" fill="#f1c894" stroke="none" stroke-width="0"/><path d="M381.08828,181.08128c0,8.82715 -4.40545,16.71505 -18.25204,21.93171c-10.79297,4.06621 -29.33607,2.72663 -44.43303,2.72663c-20.04884,0 -38.71378,1.68296 -50.13098,-5.0137c-8.20971,-4.81534 -11.99366,-13.07431 -11.99366,-19.64463c0,-15.70762 27.93962,-28.44116 62.40487,-28.44116c34.46525,0 62.40486,12.73354 62.40486,28.44116z" fill="#6db5fe" stroke="#a70079" stroke-width="0.5"/><path d="M365.30784,179.39731c-6.11451,0.37393 -88.51571,-0.08018 -88.51571,-0.42023c0,-1.00154 6.3927,-2.82521 11.28847,-4.05757c1.52801,-0.38463 2.19218,-12.52818 3.87812,-12.87999c0.07798,-0.01627 14.7669,-1.11285 15.08366,0.18691c1.2304,5.04881 0.32193,9.41591 1.4362,9.24228c2.37522,-0.37012 4.60345,-0.65182 6.45544,-0.80539c0.04358,-0.00361 0.03906,-27.65036 0.10573,-49.64279c0.04089,-13.49002 0.10854,-24.85258 0.23051,-26.403c0.03612,-0.45913 10.33865,-0.2784 10.38252,0.12876c0.14154,1.31354 0.78753,75.63336 0.8816,75.64178c1.60693,0.14395 3.48638,0.38922 5.48525,0.70725c0.49069,0.07807 -0.68638,-2.69838 0.18846,-9.77342c0.02941,-0.23782 14.78429,0.2361 14.86085,0.61008c1.08731,5.3116 4.82553,12.1531 5.11336,12.22655c3.65053,0.93174 13.55812,5.21231 13.12556,5.23876z" fill="#f1c894" stroke="none" stroke-width="NaN"/><path d="M351.80157,105.50018c0,0.27818 -28.33869,11.47454 -30.7949,11.47454c-3.03319,0 -31.77564,-9.81596 -31.77564,-11.27839c0,-0.0776 62.57054,-0.29368 62.57054,-0.19615z" fill="#f1c894" stroke="none" stroke-width="0"/><path d="M367.52958,131.99203c0,0.4146 -42.23576,17.10156 -45.89649,17.10156c-4.52065,0 -47.35816,-14.62962 -47.35816,-16.80922c0,-0.11564 93.25464,-0.43769 93.25464,-0.29233z" fill="#f1c894" stroke="none" stroke-width="0"/><path d="M351.57725,105.31371c0,0.37451 -2.51603,1.22505 -3.54247,1.56133c-4.04565,1.32542 -13.78733,2.11642 -27.43223,2.11642c-17.10685,0 -30.97472,-1.50021 -30.97472,-3.35083c0,-0.06278 14.90995,-0.27545 31.38331,-0.27908c9.65801,-0.00213 20.15606,-0.24149 25.99214,-0.15739c2.83835,0.0409 4.57398,0.4079 4.57398,0.43647z" fill="#6db5fe" stroke="none" stroke-width="0"/><path d="M352.06761,105.96754c0,0.13844 -18.902,6.94684 -31.13816,6.94684c-13.94728,0 -31.79199,-6.14532 -31.79199,-7.27374c0,-1.12842 17.84472,2.697 31.79198,2.697c5.76229,0 12.07825,-0.59717 17.50679,-1.21849c7.71092,-0.88255 13.63138,-1.81382 13.63138,-1.1516z" fill="#f1c894" stroke="none" stroke-width="0"/><path d="M367.10096,131.82034c0,2.34712 -21.21775,4.41328 -46.58465,4.41328c-25.3669,0 -45.93084,-1.90272 -45.93084,-4.24983c0,-0.76775 29.67876,0.00001 46.74812,0.00001c14.0352,0 45.76737,-0.58825 45.76737,-0.16345z" fill="#6db5fe" stroke="none" stroke-width="0"/><path d="M365.30783,179.28083c0.43256,0.02645 -9.47503,4.30703 -13.12556,5.23877c-0.28783,0.07345 -4.02605,6.91494 -5.11336,12.22654c-0.07655,0.37398 -14.83144,0.84791 -14.86085,0.61008c-0.87484,-7.07504 0.30223,-9.85148 -0.18846,-9.77342c-1.99886,0.31803 -3.87831,0.56329 -5.48525,0.70724c-0.0303,0.00271 -0.11793,6.47978 -0.22751,16.73291c-0.00411,0.38471 -11.32971,0.20449 -11.32998,0.00742c-0.01201,-9.11817 -0.02185,-17.01383 -0.04285,-17.01558c-1.85199,-0.15357 -4.08022,-0.43527 -6.45544,-0.80539c-1.11427,-0.17363 -0.2058,4.19348 -1.4362,9.24229c-0.31676,1.29976 -15.00568,0.20317 -15.08366,0.1869c-1.68594,-0.35181 -2.35011,-12.49536 -3.87812,-12.87999c-4.89577,-1.23236 -11.28847,-3.54639 -11.28847,-4.54793c0,-0.34005 82.4012,-0.3038 88.51571,0.07013z" data-paper-data="{&quot;index&quot;:null}" fill="#86c3ff" stroke="none" stroke-width="NaN"/></g></g></g></svg>