<svg viewBox="0,0,720.58321,543.68447" height="543.68447" width="720.58321" xmlns:xlink="http://www.w3.org/1999/xlink" xmlns="http://www.w3.org/2000/svg" version="1.1"><g transform="translate(121.7931,90.44391)"><g style="mix-blend-mode: normal" stroke-dashoffset="0" stroke-dasharray="" stroke-miterlimit="10" stroke-linejoin="miter" fill-rule="nonzero" data-paper-data="{&quot;isPaintingLayer&quot;:true}"><path stroke-linecap="butt" stroke-width="2" stroke="#000000" fill="#f7ff88" d="M-120.7931,452.24056v-541.68447h718.58321v541.68447z"></path><path stroke-linecap="butt" stroke-width="2" stroke="#000000" fill="#000000" d="M445.2338,218.43586c0,38.14579 -91.8863,69.06907 -205.2338,69.06907c-113.3475,0 -205.2338,-30.92328 -205.2338,-69.06907c0,-38.14579 91.8863,-69.06907 205.2338,-69.06907c113.3475,0 205.2338,30.92328 205.2338,69.06907z"></path><path stroke-linecap="butt" stroke-width="2" stroke="#000000" fill="#000000" d="M89.09911,185.40282v0z"></path><path stroke-linecap="butt" stroke-width="2" stroke="#000000" fill="#684559" d="M111.12087,205.75794v-256.47748h258.25825v256.47748z"></path><path stroke-linecap="butt" stroke-width="0.5" stroke="none" fill="#af155f" d=""></path><path stroke-linecap="butt" stroke-width="2" stroke="#000000" fill="#55457d" d="M175.94293,91.53699l-52.17063,-53.13721l52.98109,-52.01735l52.17063,53.13722z"></path><path stroke-linecap="butt" stroke-width="2" stroke="#000000" fill="#f2ff65" d="M299.56156,95.03549l-52.17063,-53.13721l52.98109,-52.01735l52.17063,53.13722z"></path><path stroke-linecap="butt" stroke-width="2" stroke="#000000" fill="#48d8ff" d="M146.62328,209.18864l-27.59003,-28.1012l28.01863,-27.50897l27.59004,28.1012z"></path><path stroke-linecap="butt" stroke-width="2" stroke="#000000" fill="#ffffff" d="M208.62329,208.18864l-27.59003,-28.1012l28.01863,-27.50897l27.59004,28.1012z"></path><path stroke-linecap="butt" stroke-width="2" stroke="#000000" fill="#b70000" d="M271.62325,208.18864l-27.59003,-28.1012l28.01863,-27.50897l27.59004,28.1012z"></path><path stroke-linecap="butt" stroke-width="2" stroke="#000000" fill="#140071" d="M333.62325,208.18864l-27.59003,-28.1012l28.01864,-27.50897l27.59004,28.1012z"></path><path stroke-linecap="butt" stroke-width="0.5" stroke="none" fill="#684559" d="M260.47963,82.63765c0.24649,-0.02622 0.53244,0.01808 0.85787,0.18079c1.34164,0.67082 0.67082,2.01246 0.67082,2.01246l-2.87498,0.89585c-2.79838,-3.75004 -7.41708,-6.7255 -11.30365,-9.32189c-3.04805,-2.03622 -5.55305,-4.77034 -8.61828,-6.63546c-3.04026,-1.84993 -5.72979,-2.30591 -8.54819,-4.8277c0,0 -0.10692,-0.09623 -0.22474,-0.2622c-1.93435,4.16962 -4.25812,8.18678 -6.44428,12.17891c-0.83508,1.52493 -0.45382,1.91832 -1.3134,3.62737c-1.24741,2.48015 -3.31451,5.27513 -5.05146,7.42953c-1.69198,4.13741 -5.87985,7.10088 -8.56868,10.63877l-1.49399,1.13934c0,0 -1.2,0.9 -2.1,-0.3c-0.9,-1.2 0.3,-2.1 0.3,-2.1l1.17267,-0.86066c2.47901,-3.35569 6.57351,-6.12161 8.09799,-10.02789c1.68449,-2.12113 3.7407,-4.80415 4.94853,-7.23714c0.58478,-1.17794 0.72512,-2.55057 1.35327,-3.70596c2.25358,-4.14514 4.67646,-8.29195 6.65072,-12.63548c1.10608,-2.43345 1.45885,-5.23948 2.66637,-7.66608c1.15453,-2.3201 2.45263,-4.65103 3.24411,-7.11011c1.62726,-5.64408 4.38564,-11.02405 6.75618,-16.22382c0.95186,-2.08791 2.86827,-3.90942 3.58367,-6.13007c1.18142,-3.66722 0.78985,-7.3048 2.00345,-11.01048c0,0 0.47434,-1.42302 1.89737,-0.94868c1.42302,0.47434 0.94869,1.89737 0.94869,1.89737c-1.23863,3.64152 -0.74681,7.34116 -1.99656,10.98953c-0.8207,2.39585 -2.73024,4.28696 -3.74966,6.5366c-2.29521,5.06505 -5.01942,10.26952 -6.57715,15.77619c-0.89977,2.62913 -2.17548,5.07482 -3.42256,7.55656c-0.91797,1.8268 -1.33907,3.88038 -1.9684,5.82664c0.70649,-0.13755 1.29475,0.39188 1.29475,0.39188c2.67622,2.42436 5.1557,2.74902 8.11848,4.50563c3.11478,1.84672 5.64131,4.65312 8.71505,6.69787c3.72375,2.47716 7.95699,5.29742 10.97597,8.72234z"></path><path stroke-linecap="butt" stroke-width="0.5" stroke="none" fill="#684559" d="M238.58333,13.28046c-1.5,0 -1.5,-1.5 -1.5,-1.5v-1c0,-3.85563 0.61174,-7.43937 0.95555,-11.22039c-0.13394,0.03435 -0.28505,0.05373 -0.45555,0.05373c-1.5,0 -1.5,-1.5 -1.5,-1.5l0.07698,-1.47434c0.58677,-1.75854 1.35728,-3.41249 2.06992,-5.08706c-0.0516,-2.38455 -0.1469,-4.76983 -0.1469,-7.10526c0,-3.72254 1.08825,-9.13318 -1.08141,-12.16795c0,0 -0.83205,-1.24808 0.41602,-2.08013c1.24808,-0.83205 2.08013,0.41603 2.08013,0.41603c0.54499,0.85906 0.92033,1.74251 1.17593,2.64652c0.22773,-0.3718 0.65805,-0.74656 1.4548,-0.63273c1.48493,0.21213 1.27279,1.69706 1.27279,1.69706c-0.63971,4.42496 0.32121,9.08274 -0.6904,13.45055c-0.34253,1.47894 -0.86469,2.87259 -1.43761,4.24563c0.03195,2.42585 0.00342,4.84383 -0.19535,7.21542c-0.32853,3.91984 -0.99489,7.56862 -0.99489,11.54295v1c0,0 0,1.5 -1.5,1.5z"></path><path stroke-linecap="butt" stroke-width="0.5" stroke="none" fill="#684559" d="M239.91668,-14.05286c-1.5,0 -1.5,-1.5 -1.5,-1.5l0.02912,-0.96084c0.72113,-3.51949 0.3042,-7.45336 0.3042,-11.03916c0,0 0,-1.5 1.5,-1.5c1.5,0 1.5,1.5 1.5,1.5c0,3.81712 0.3723,7.87671 -0.36246,11.62751l0.02913,0.3725c0,0 0,1.5 -1.5,1.5z"></path><path stroke-linecap="round" stroke-width="2" stroke="#000000" fill="none" d="M237.25001,-34.21954l-18.66666,25.33334l17.66666,17l0.66667,37l-26.66667,34.33334"></path><path stroke-linecap="round" stroke-width="2" stroke="#000000" fill="none" d="M230.58333,55.78046l36.33333,26.33333"></path></g></g></svg>